<svg width="24" height="24" viewBox="0 0 24 24" fill="none" xmlns="http://www.w3.org/2000/svg"><g clip-path="url(#clip0_328_5133)"><path d="M23.9998 12.2755C23.9998 11.4598 23.9324 10.6397 23.7884 9.83716H12.2405V14.4581H18.8534C18.579 15.9485 17.6973 17.2669 16.4062 18.1047V21.103H20.3515C22.6683 19.013 23.9998 15.9264 23.9998 12.2755Z" fill="#4285F4"></path><path d="M12.2394 24.0003C15.5414 24.0003 18.326 22.9377 20.3549 21.1034L16.4096 18.1051C15.3119 18.837 13.8949 19.2515 12.2439 19.2515C9.04991 19.2515 6.34175 17.1394 5.37006 14.2998H1.29883V17.3907C3.37718 21.4429 7.61036 24.0003 12.2394 24.0003Z" fill="#34A853"></path><path d="M5.36724 14.299C4.8544 12.8086 4.8544 11.1948 5.36724 9.70447V6.61353H1.30051C-0.435945 10.0043 -0.435945 13.9992 1.30051 17.3899L5.36724 14.299Z" fill="#FBBC04"></path><path d="M12.2394 4.74868C13.9849 4.72223 15.6718 5.36599 16.9359 6.54769L20.4314 3.12164C18.218 1.08453 15.2805 -0.0354426 12.2394 -0.000167897C7.61036 -0.000167897 3.37718 2.55725 1.29883 6.61383L5.36556 9.70477C6.33276 6.86075 9.04541 4.74868 12.2394 4.74868Z" fill="#EA4335"></path></g><defs><clipPath id="clip0_328_5133"><rect width="24" height="24" fill="white"></rect></clipPath></defs></svg>