<svg width="25" height="24" viewBox="0 0 25 24" fill="none" xmlns="http://www.w3.org/2000/svg"><path d="M12.0307 1.75142C12.2762 1.5878 12.5647 1.50049 12.8598 1.50049V3.0078V7.94151V8.82243L12.8595 9.37512V9.75012L12.8598 11.2501L12.8595 13.5001V13.8751V14.6251V15.5626V16.5001V16.8751L12.8532 18.6266L8.072 21.5328C7.81941 21.685 7.52755 21.7594 7.23291 21.7467C6.93827 21.7339 6.65393 21.6346 6.41543 21.4611C6.17693 21.2877 5.99486 21.0477 5.89198 20.7713C5.7891 20.495 5.76998 20.1944 5.837 19.9072L7.1045 14.4191L2.87544 10.7234C2.65176 10.5305 2.49001 10.2758 2.41049 9.99138C2.33096 9.7069 2.3372 9.40528 2.42841 9.12434C2.51962 8.8434 2.69175 8.59564 2.92321 8.41213C3.15467 8.22862 3.43516 8.11754 3.7295 8.0928L9.30387 7.60999L11.4798 2.41999C11.5934 2.14766 11.7851 1.91504 12.0307 1.75142Z" fill="#FFBC14"></path><path d="M13.6873 1.75142C13.4418 1.5878 13.1533 1.50049 12.8582 1.50049V3.0078V7.94151V8.82243L12.8585 9.37512V9.75012L12.8582 11.2501L12.8585 13.5001V13.8751V14.6251V15.5626V16.5001V16.8751L12.8648 18.6266L17.646 21.5328C17.8986 21.685 18.1905 21.7594 18.4851 21.7467C18.7797 21.7339 19.0641 21.6346 19.3026 21.4611C19.5411 21.2877 19.7232 21.0477 19.826 20.7713C19.9289 20.495 19.948 20.1944 19.881 19.9072L18.6135 14.4191L22.8426 10.7234C23.0663 10.5305 23.228 10.2758 23.3075 9.99138C23.3871 9.7069 23.3808 9.40528 23.2896 9.12434C23.1984 8.8434 23.0263 8.59564 22.7948 8.41213C22.5633 8.22862 22.2829 8.11754 21.9885 8.0928L16.4141 7.60999L14.2382 2.41999C14.1246 2.14766 13.9329 1.91504 13.6873 1.75142Z" fill="#E8EAE6"></path></svg>